  0
SECTION
  2
HEADER
  9
$ACADVER
  1
AC1009
  9
$EXTMIN
 10
0.0
 20
0.0
 30
0.0
  9
$EXTMAX
 10
1000.0
 20
1000.0
 30
0.0
  9
$FILLMODE
 70
 0
  9
$SPLFRAME
 70
 1
  0
ENDSEC
  0
SECTION
  2
TABLES
  0
TABLE
  2
LAYER
 70
1
  0
LAYER
  2
0
 70
     0
 62
     7
  6
CONTINUOUS
  0
ENDTAB
  0
ENDSEC
  0
SECTION
  2
ENTITIES
  0
LINE
  8
0
 62
     0
 10
260.747
 20
92.3325
 30
0.0
 11
260.981
 21
92.323
 31
0.0
  0
LINE
  8
0
 62
     0
 10
260.981
 20
92.323
 30
0.0
 11
261.215
 21
92.2969
 31
0.0
  0
LINE
  8
0
 62
     0
 10
261.215
 20
92.2969
 30
0.0
 11
261.447
 21
92.25
 31
0.0
  0
LINE
  8
0
 62
     0
 10
261.447
 20
92.25
 30
0.0
 11
261.673
 21
92.1865
 31
0.0
  0
LINE
  8
0
 62
     0
 10
261.673
 20
92.1865
 30
0.0
 11
261.895
 21
92.1039
 31
0.0
  0
LINE
  8
0
 62
     0
 10
261.895
 20
92.1039
 30
0.0
 11
262.107
 21
92.0062
 31
0.0
  0
LINE
  8
0
 62
     0
 10
262.107
 20
92.0062
 30
0.0
 11
262.314
 21
91.8905
 31
0.0
  0
LINE
  8
0
 62
     0
 10
262.314
 20
91.8905
 30
0.0
 11
262.509
 21
91.7607
 31
0.0
  0
LINE
  8
0
 62
     0
 10
262.509
 20
91.7607
 30
0.0
 11
262.694
 21
91.6146
 31
0.0
  0
LINE
  8
0
 62
     0
 10
262.694
 20
91.6146
 30
0.0
 11
262.868
 21
91.4548
 31
0.0
  0
LINE
  8
0
 62
     0
 10
262.868
 20
91.4548
 30
0.0
 11
263.028
 21
91.2813
 31
0.0
  0
LINE
  8
0
 62
     0
 10
263.028
 20
91.2813
 30
0.0
 11
263.174
 21
91.0967
 31
0.0
  0
LINE
  8
0
 62
     0
 10
263.174
 20
91.0967
 30
0.0
 11
263.303
 21
90.901
 31
0.0
  0
LINE
  8
0
 62
     0
 10
263.303
 20
90.901
 30
0.0
 11
263.419
 21
90.6942
 31
0.0
  0
LINE
  8
0
 62
     0
 10
263.419
 20
90.6942
 30
0.0
 11
263.518
 21
90.4804
 31
0.0
  0
LINE
  8
0
 62
     0
 10
263.518
 20
90.4804
 30
0.0
 11
263.599
 21
90.26
 31
0.0
  0
LINE
  8
0
 62
     0
 10
263.599
 20
90.26
 30
0.0
 11
263.664
 21
90.0328
 31
0.0
  0
LINE
  8
0
 62
     0
 10
263.664
 20
90.0328
 30
0.0
 11
263.71
 21
89.8028
 31
0.0
  0
LINE
  8
0
 62
     0
 10
263.71
 20
89.8028
 30
0.0
 11
263.736
 21
89.5685
 31
0.0
  0
LINE
  8
0
 62
     0
 10
263.736
 20
89.5685
 30
0.0
 11
263.747
 21
89.3329
 31
0.0
  0
LINE
  8
0
 62
     0
 10
263.747
 20
89.3329
 30
0.0
 11
263.747
 21
3.1309
 31
0.0
  0
LINE
  8
0
 62
     0
 10
263.747
 20
3.1309
 30
0.0
 11
263.736
 21
2.89664
 31
0.0
  0
LINE
  8
0
 62
     0
 10
263.736
 20
2.89664
 30
0.0
 11
263.71
 21
2.66237
 31
0.0
  0
LINE
  8
0
 62
     0
 10
263.71
 20
2.66237
 30
0.0
 11
263.664
 21
2.43086
 31
0.0
  0
LINE
  8
0
 62
     0
 10
263.664
 20
2.43086
 30
0.0
 11
263.599
 21
2.20486
 31
0.0
  0
LINE
  8
0
 62
     0
 10
263.599
 20
2.20486
 30
0.0
 11
263.518
 21
1.983
 31
0.0
  0
LINE
  8
0
 62
     0
 10
263.518
 20
1.983
 30
0.0
 11
263.419
 21
1.77078
 31
0.0
  0
LINE
  8
0
 62
     0
 10
263.419
 20
1.77078
 30
0.0
 11
263.303
 21
1.56407
 31
0.0
  0
LINE
  8
0
 62
     0
 10
263.303
 20
1.56407
 30
0.0
 11
263.174
 21
1.36839
 31
0.0
  0
LINE
  8
0
 62
     0
 10
263.174
 20
1.36839
 30
0.0
 11
263.028
 21
1.18374
 31
0.0
  0
LINE
  8
0
 62
     0
 10
263.028
 20
1.18374
 30
0.0
 11
262.868
 21
1.0101
 31
0.0
  0
LINE
  8
0
 62
     0
 10
262.868
 20
1.0101
 30
0.0
 11
262.694
 21
0.850251
 31
0.0
  0
LINE
  8
0
 62
     0
 10
262.694
 20
0.850251
 30
0.0
 11
262.509
 21
0.704176
 31
0.0
  0
LINE
  8
0
 62
     0
 10
262.509
 20
0.704176
 30
0.0
 11
262.314
 21
0.574643
 31
0.0
  0
LINE
  8
0
 62
     0
 10
262.314
 20
0.574643
 30
0.0
 11
262.107
 21
0.458886
 31
0.0
  0
LINE
  8
0
 62
     0
 10
262.107
 20
0.458886
 30
0.0
 11
261.895
 21
0.359668
 31
0.0
  0
LINE
  8
0
 62
     0
 10
261.895
 20
0.359668
 30
0.0
 11
261.673
 21
0.278364
 31
0.0
  0
LINE
  8
0
 62
     0
 10
261.673
 20
0.278364
 30
0.0
 11
261.447
 21
0.214974
 31
0.0
  0
LINE
  8
0
 62
     0
 10
261.447
 20
0.214974
 30
0.0
 11
261.215
 21
0.168121
 31
0.0
  0
LINE
  8
0
 62
     0
 10
261.215
 20
0.168121
 30
0.0
 11
260.981
 21
0.141938
 31
0.0
  0
LINE
  8
0
 62
     0
 10
260.981
 20
0.141938
 30
0.0
 11
260.747
 21
0.130914
 31
0.0
  0
LINE
  8
0
 62
     0
 10
260.747
 20
0.130914
 30
0.0
 11
3.09507
 21
0.130914
 31
0.0
  0
LINE
  8
0
 62
     0
 10
3.09507
 20
0.130914
 30
0.0
 11
2.85943
 21
0.141938
 31
0.0
  0
LINE
  8
0
 62
     0
 10
2.85943
 20
0.141938
 30
0.0
 11
2.62516
 21
0.168121
 31
0.0
  0
LINE
  8
0
 62
     0
 10
2.62516
 20
0.168121
 30
0.0
 11
2.39503
 21
0.214974
 31
0.0
  0
LINE
  8
0
 62
     0
 10
2.39503
 20
0.214974
 30
0.0
 11
2.16765
 21
0.278364
 31
0.0
  0
LINE
  8
0
 62
     0
 10
2.16765
 20
0.278364
 30
0.0
 11
1.94717
 21
0.359668
 31
0.0
  0
LINE
  8
0
 62
     0
 10
1.94717
 20
0.359668
 30
0.0
 11
1.73357
 21
0.458886
 31
0.0
  0
LINE
  8
0
 62
     0
 10
1.73357
 20
0.458886
 30
0.0
 11
1.52687
 21
0.574643
 31
0.0
  0
LINE
  8
0
 62
     0
 10
1.52687
 20
0.574643
 30
0.0
 11
1.33119
 21
0.704176
 31
0.0
  0
LINE
  8
0
 62
     0
 10
1.33119
 20
0.704176
 30
0.0
 11
1.14653
 21
0.850251
 31
0.0
  0
LINE
  8
0
 62
     0
 10
1.14653
 20
0.850251
 30
0.0
 11
0.972894
 21
1.0101
 31
0.0
  0
LINE
  8
0
 62
     0
 10
0.972894
 20
1.0101
 30
0.0
 11
0.813043
 21
1.18374
 31
0.0
  0
LINE
  8
0
 62
     0
 10
0.813043
 20
1.18374
 30
0.0
 11
0.666972
 21
1.36839
 31
0.0
  0
LINE
  8
0
 62
     0
 10
0.666972
 20
1.36839
 30
0.0
 11
0.537436
 21
1.56407
 31
0.0
  0
LINE
  8
0
 62
     0
 10
0.537436
 20
1.56407
 30
0.0
 11
0.421679
 21
1.77078
 31
0.0
  0
LINE
  8
0
 62
     0
 10
0.421679
 20
1.77078
 30
0.0
 11
0.323839
 21
1.983
 31
0.0
  0
LINE
  8
0
 62
     0
 10
0.323839
 20
1.983
 30
0.0
 11
0.241157
 21
2.20486
 31
0.0
  0
LINE
  8
0
 62
     0
 10
0.241157
 20
2.20486
 30
0.0
 11
0.177767
 21
2.43086
 31
0.0
  0
LINE
  8
0
 62
     0
 10
0.177767
 20
2.43086
 30
0.0
 11
0.130914
 21
2.66237
 31
0.0
  0
LINE
  8
0
 62
     0
 10
0.130914
 20
2.66237
 30
0.0
 11
0.104731
 21
2.89664
 31
0.0
  0
LINE
  8
0
 62
     0
 10
0.104731
 20
2.89664
 30
0.0
 11
0.0950846
 21
3.13228
 31
0.0
  0
LINE
  8
0
 62
     0
 10
0.0950846
 20
3.13228
 30
0.0
 11
0.0950846
 21
89.3329
 31
0.0
  0
LINE
  8
0
 62
     0
 10
0.0950846
 20
89.3329
 30
0.0
 11
0.104731
 21
89.5685
 31
0.0
  0
LINE
  8
0
 62
     0
 10
0.104731
 20
89.5685
 30
0.0
 11
0.130914
 21
89.8028
 31
0.0
  0
LINE
  8
0
 62
     0
 10
0.130914
 20
89.8028
 30
0.0
 11
0.177767
 21
90.0328
 31
0.0
  0
LINE
  8
0
 62
     0
 10
0.177767
 20
90.0328
 30
0.0
 11
0.241157
 21
90.26
 31
0.0
  0
LINE
  8
0
 62
     0
 10
0.241157
 20
90.26
 30
0.0
 11
0.323839
 21
90.4804
 31
0.0
  0
LINE
  8
0
 62
     0
 10
0.323839
 20
90.4804
 30
0.0
 11
0.421679
 21
90.6942
 31
0.0
  0
LINE
  8
0
 62
     0
 10
0.421679
 20
90.6942
 30
0.0
 11
0.537436
 21
90.901
 31
0.0
  0
LINE
  8
0
 62
     0
 10
0.537436
 20
90.901
 30
0.0
 11
0.666972
 21
91.0967
 31
0.0
  0
LINE
  8
0
 62
     0
 10
0.666972
 20
91.0967
 30
0.0
 11
0.813043
 21
91.2813
 31
0.0
  0
LINE
  8
0
 62
     0
 10
0.813043
 20
91.2813
 30
0.0
 11
0.972894
 21
91.4548
 31
0.0
  0
LINE
  8
0
 62
     0
 10
0.972894
 20
91.4548
 30
0.0
 11
1.14653
 21
91.6146
 31
0.0
  0
LINE
  8
0
 62
     0
 10
1.14653
 20
91.6146
 30
0.0
 11
1.33119
 21
91.7607
 31
0.0
  0
LINE
  8
0
 62
     0
 10
1.33119
 20
91.7607
 30
0.0
 11
1.52687
 21
91.8905
 31
0.0
  0
LINE
  8
0
 62
     0
 10
1.52687
 20
91.8905
 30
0.0
 11
1.73357
 21
92.0062
 31
0.0
  0
LINE
  8
0
 62
     0
 10
1.73357
 20
92.0062
 30
0.0
 11
1.94717
 21
92.1039
 31
0.0
  0
LINE
  8
0
 62
     0
 10
1.94717
 20
92.1039
 30
0.0
 11
2.16765
 21
92.1865
 31
0.0
  0
LINE
  8
0
 62
     0
 10
2.16765
 20
92.1865
 30
0.0
 11
2.39503
 21
92.25
 31
0.0
  0
LINE
  8
0
 62
     0
 10
2.39503
 20
92.25
 30
0.0
 11
2.62516
 21
92.2969
 31
0.0
  0
LINE
  8
0
 62
     0
 10
2.62516
 20
92.2969
 30
0.0
 11
2.85943
 21
92.323
 31
0.0
  0
LINE
  8
0
 62
     0
 10
2.85943
 20
92.323
 30
0.0
 11
3.09507
 21
92.3325
 31
0.0
  0
LINE
  8
0
 62
     0
 10
3.09507
 20
92.3325
 30
0.0
 11
260.747
 21
92.3325
 31
0.0
  0
LINE
  8
0
 62
     0
 10
3.63114
 20
5.55763
 30
0.0
 11
3.21359
 21
5.34539
 31
0.0
  0
LINE
  8
0
 62
     0
 10
3.21359
 20
5.34539
 30
0.0
 11
2.88148
 21
5.01329
 31
0.0
  0
LINE
  8
0
 62
     0
 10
2.88148
 20
5.01329
 30
0.0
 11
2.66788
 21
4.59574
 31
0.0
  0
LINE
  8
0
 62
     0
 10
2.66788
 20
4.59574
 30
0.0
 11
2.59485
 21
4.13135
 31
0.0
  0
LINE
  8
0
 62
     0
 10
2.59485
 20
4.13135
 30
0.0
 11
2.66788
 21
3.66832
 31
0.0
  0
LINE
  8
0
 62
     0
 10
2.66788
 20
3.66832
 30
0.0
 11
2.88148
 21
3.25079
 31
0.0
  0
LINE
  8
0
 62
     0
 10
2.88148
 20
3.25079
 30
0.0
 11
3.21359
 21
2.91869
 31
0.0
  0
LINE
  8
0
 62
     0
 10
3.21359
 20
2.91869
 30
0.0
 11
3.63114
 21
2.70509
 31
0.0
  0
LINE
  8
0
 62
     0
 10
3.63114
 20
2.70509
 30
0.0
 11
4.09416
 21
2.63067
 31
0.0
  0
LINE
  8
0
 62
     0
 10
4.09416
 20
2.63067
 30
0.0
 11
4.55856
 21
2.70509
 31
0.0
  0
LINE
  8
0
 62
     0
 10
4.55856
 20
2.70509
 30
0.0
 11
4.97611
 21
2.91869
 31
0.0
  0
LINE
  8
0
 62
     0
 10
4.97611
 20
2.91869
 30
0.0
 11
5.30821
 21
3.25079
 31
0.0
  0
LINE
  8
0
 62
     0
 10
5.30821
 20
3.25079
 30
0.0
 11
5.52178
 21
3.66832
 31
0.0
  0
LINE
  8
0
 62
     0
 10
5.52178
 20
3.66832
 30
0.0
 11
5.59484
 21
4.13135
 31
0.0
  0
LINE
  8
0
 62
     0
 10
5.59484
 20
4.13135
 30
0.0
 11
5.52178
 21
4.59574
 31
0.0
  0
LINE
  8
0
 62
     0
 10
5.52178
 20
4.59574
 30
0.0
 11
5.30821
 21
5.01329
 31
0.0
  0
LINE
  8
0
 62
     0
 10
5.30821
 20
5.01329
 30
0.0
 11
4.97611
 21
5.34539
 31
0.0
  0
LINE
  8
0
 62
     0
 10
4.97611
 20
5.34539
 30
0.0
 11
4.55856
 21
5.55763
 31
0.0
  0
LINE
  8
0
 62
     0
 10
4.55856
 20
5.55763
 30
0.0
 11
4.09416
 21
5.63065
 31
0.0
  0
LINE
  8
0
 62
     0
 10
4.09416
 20
5.63065
 30
0.0
 11
3.63114
 21
5.55763
 31
0.0
  0
LINE
  8
0
 62
     0
 10
88.8488
 20
5.55763
 30
0.0
 11
88.4301
 21
5.34539
 31
0.0
  0
LINE
  8
0
 62
     0
 10
88.4301
 20
5.34539
 30
0.0
 11
88.0981
 21
5.01329
 31
0.0
  0
LINE
  8
0
 62
     0
 10
88.0981
 20
5.01329
 30
0.0
 11
87.8858
 21
4.59574
 31
0.0
  0
LINE
  8
0
 62
     0
 10
87.8858
 20
4.59574
 30
0.0
 11
87.8127
 21
4.13135
 31
0.0
  0
LINE
  8
0
 62
     0
 10
87.8127
 20
4.13135
 30
0.0
 11
87.8858
 21
3.66832
 31
0.0
  0
LINE
  8
0
 62
     0
 10
87.8858
 20
3.66832
 30
0.0
 11
88.0981
 21
3.25079
 31
0.0
  0
LINE
  8
0
 62
     0
 10
88.0981
 20
3.25079
 30
0.0
 11
88.4301
 21
2.91869
 31
0.0
  0
LINE
  8
0
 62
     0
 10
88.4301
 20
2.91869
 30
0.0
 11
88.8488
 21
2.70509
 31
0.0
  0
LINE
  8
0
 62
     0
 10
88.8488
 20
2.70509
 30
0.0
 11
89.312
 21
2.63067
 31
0.0
  0
LINE
  8
0
 62
     0
 10
89.312
 20
2.63067
 30
0.0
 11
89.7749
 21
2.70509
 31
0.0
  0
LINE
  8
0
 62
     0
 10
89.7749
 20
2.70509
 30
0.0
 11
90.194
 21
2.91869
 31
0.0
  0
LINE
  8
0
 62
     0
 10
90.194
 20
2.91869
 30
0.0
 11
90.526
 21
3.25079
 31
0.0
  0
LINE
  8
0
 62
     0
 10
90.526
 20
3.25079
 30
0.0
 11
90.7383
 21
3.66832
 31
0.0
  0
LINE
  8
0
 62
     0
 10
90.7383
 20
3.66832
 30
0.0
 11
90.8128
 21
4.13135
 31
0.0
  0
LINE
  8
0
 62
     0
 10
90.8128
 20
4.13135
 30
0.0
 11
90.7383
 21
4.59574
 31
0.0
  0
LINE
  8
0
 62
     0
 10
90.7383
 20
4.59574
 30
0.0
 11
90.526
 21
5.01329
 31
0.0
  0
LINE
  8
0
 62
     0
 10
90.526
 20
5.01329
 30
0.0
 11
90.194
 21
5.34539
 31
0.0
  0
LINE
  8
0
 62
     0
 10
90.194
 20
5.34539
 30
0.0
 11
89.7749
 21
5.55763
 31
0.0
  0
LINE
  8
0
 62
     0
 10
89.7749
 20
5.55763
 30
0.0
 11
89.312
 21
5.63065
 31
0.0
  0
LINE
  8
0
 62
     0
 10
89.312
 20
5.63065
 30
0.0
 11
88.8488
 21
5.55763
 31
0.0
  0
LINE
  8
0
 62
     0
 10
174.065
 20
5.55763
 30
0.0
 11
173.648
 21
5.34539
 31
0.0
  0
LINE
  8
0
 62
     0
 10
173.648
 20
5.34539
 30
0.0
 11
173.316
 21
5.01329
 31
0.0
  0
LINE
  8
0
 62
     0
 10
173.316
 20
5.01329
 30
0.0
 11
173.102
 21
4.59574
 31
0.0
  0
LINE
  8
0
 62
     0
 10
173.102
 20
4.59574
 30
0.0
 11
173.029
 21
4.13135
 31
0.0
  0
LINE
  8
0
 62
     0
 10
173.029
 20
4.13135
 30
0.0
 11
173.102
 21
3.66832
 31
0.0
  0
LINE
  8
0
 62
     0
 10
173.102
 20
3.66832
 30
0.0
 11
173.316
 21
3.25079
 31
0.0
  0
LINE
  8
0
 62
     0
 10
173.316
 20
3.25079
 30
0.0
 11
173.648
 21
2.91869
 31
0.0
  0
LINE
  8
0
 62
     0
 10
173.648
 20
2.91869
 30
0.0
 11
174.065
 21
2.70509
 31
0.0
  0
LINE
  8
0
 62
     0
 10
174.065
 20
2.70509
 30
0.0
 11
174.53
 21
2.63067
 31
0.0
  0
LINE
  8
0
 62
     0
 10
174.53
 20
2.63067
 30
0.0
 11
174.993
 21
2.70509
 31
0.0
  0
LINE
  8
0
 62
     0
 10
174.993
 20
2.70509
 30
0.0
 11
175.411
 21
2.91869
 31
0.0
  0
LINE
  8
0
 62
     0
 10
175.411
 20
2.91869
 30
0.0
 11
175.743
 21
3.25079
 31
0.0
  0
LINE
  8
0
 62
     0
 10
175.743
 20
3.25079
 30
0.0
 11
175.955
 21
3.66832
 31
0.0
  0
LINE
  8
0
 62
     0
 10
175.955
 20
3.66832
 30
0.0
 11
176.029
 21
4.13135
 31
0.0
  0
LINE
  8
0
 62
     0
 10
176.029
 20
4.13135
 30
0.0
 11
175.955
 21
4.59574
 31
0.0
  0
LINE
  8
0
 62
     0
 10
175.955
 20
4.59574
 30
0.0
 11
175.743
 21
5.01329
 31
0.0
  0
LINE
  8
0
 62
     0
 10
175.743
 20
5.01329
 30
0.0
 11
175.411
 21
5.34539
 31
0.0
  0
LINE
  8
0
 62
     0
 10
175.411
 20
5.34539
 30
0.0
 11
174.993
 21
5.55763
 31
0.0
  0
LINE
  8
0
 62
     0
 10
174.993
 20
5.55763
 30
0.0
 11
174.53
 21
5.63065
 31
0.0
  0
LINE
  8
0
 62
     0
 10
174.53
 20
5.63065
 30
0.0
 11
174.065
 21
5.55763
 31
0.0
  0
LINE
  8
0
 62
     0
 10
259.282
 20
5.55763
 30
0.0
 11
258.864
 21
5.34539
 31
0.0
  0
LINE
  8
0
 62
     0
 10
258.864
 20
5.34539
 30
0.0
 11
258.532
 21
5.01329
 31
0.0
  0
LINE
  8
0
 62
     0
 10
258.532
 20
5.01329
 30
0.0
 11
258.32
 21
4.59574
 31
0.0
  0
LINE
  8
0
 62
     0
 10
258.32
 20
4.59574
 30
0.0
 11
258.247
 21
4.13135
 31
0.0
  0
LINE
  8
0
 62
     0
 10
258.247
 20
4.13135
 30
0.0
 11
258.32
 21
3.66832
 31
0.0
  0
LINE
  8
0
 62
     0
 10
258.32
 20
3.66832
 30
0.0
 11
258.532
 21
3.25079
 31
0.0
  0
LINE
  8
0
 62
     0
 10
258.532
 20
3.25079
 30
0.0
 11
258.864
 21
2.91869
 31
0.0
  0
LINE
  8
0
 62
     0
 10
258.864
 20
2.91869
 30
0.0
 11
259.282
 21
2.70509
 31
0.0
  0
LINE
  8
0
 62
     0
 10
259.282
 20
2.70509
 30
0.0
 11
259.746
 21
2.63067
 31
0.0
  0
LINE
  8
0
 62
     0
 10
259.746
 20
2.63067
 30
0.0
 11
260.21
 21
2.70509
 31
0.0
  0
LINE
  8
0
 62
     0
 10
260.21
 20
2.70509
 30
0.0
 11
260.627
 21
2.91869
 31
0.0
  0
LINE
  8
0
 62
     0
 10
260.627
 20
2.91869
 30
0.0
 11
260.959
 21
3.25079
 31
0.0
  0
LINE
  8
0
 62
     0
 10
260.959
 20
3.25079
 30
0.0
 11
261.173
 21
3.66832
 31
0.0
  0
LINE
  8
0
 62
     0
 10
261.173
 20
3.66832
 30
0.0
 11
261.247
 21
4.13135
 31
0.0
  0
LINE
  8
0
 62
     0
 10
261.247
 20
4.13135
 30
0.0
 11
261.173
 21
4.59574
 31
0.0
  0
LINE
  8
0
 62
     0
 10
261.173
 20
4.59574
 30
0.0
 11
260.959
 21
5.01329
 31
0.0
  0
LINE
  8
0
 62
     0
 10
260.959
 20
5.01329
 30
0.0
 11
260.627
 21
5.34539
 31
0.0
  0
LINE
  8
0
 62
     0
 10
260.627
 20
5.34539
 30
0.0
 11
260.21
 21
5.55763
 31
0.0
  0
LINE
  8
0
 62
     0
 10
260.21
 20
5.55763
 30
0.0
 11
259.746
 21
5.63065
 31
0.0
  0
LINE
  8
0
 62
     0
 10
259.746
 20
5.63065
 30
0.0
 11
259.282
 21
5.55763
 31
0.0
  0
LINE
  8
0
 62
     0
 10
3.63114
 20
89.7601
 30
0.0
 11
3.21359
 21
89.5463
 31
0.0
  0
LINE
  8
0
 62
     0
 10
3.21359
 20
89.5463
 30
0.0
 11
2.88148
 21
89.2143
 31
0.0
  0
LINE
  8
0
 62
     0
 10
2.88148
 20
89.2143
 30
0.0
 11
2.66788
 21
88.7966
 31
0.0
  0
LINE
  8
0
 62
     0
 10
2.66788
 20
88.7966
 30
0.0
 11
2.59485
 21
88.3324
 31
0.0
  0
LINE
  8
0
 62
     0
 10
2.59485
 20
88.3324
 30
0.0
 11
2.66788
 21
87.8692
 31
0.0
  0
LINE
  8
0
 62
     0
 10
2.66788
 20
87.8692
 30
0.0
 11
2.88148
 21
87.4518
 31
0.0
  0
LINE
  8
0
 62
     0
 10
2.88148
 20
87.4518
 30
0.0
 11
3.21359
 21
87.1195
 31
0.0
  0
LINE
  8
0
 62
     0
 10
3.21359
 20
87.1195
 30
0.0
 11
3.63114
 21
86.9061
 31
0.0
  0
LINE
  8
0
 62
     0
 10
3.63114
 20
86.9061
 30
0.0
 11
4.09416
 21
86.8331
 31
0.0
  0
LINE
  8
0
 62
     0
 10
4.09416
 20
86.8331
 30
0.0
 11
4.55856
 21
86.9061
 31
0.0
  0
LINE
  8
0
 62
     0
 10
4.55856
 20
86.9061
 30
0.0
 11
4.97611
 21
87.1195
 31
0.0
  0
LINE
  8
0
 62
     0
 10
4.97611
 20
87.1195
 30
0.0
 11
5.30821
 21
87.4518
 31
0.0
  0
LINE
  8
0
 62
     0
 10
5.30821
 20
87.4518
 30
0.0
 11
5.52178
 21
87.8692
 31
0.0
  0
LINE
  8
0
 62
     0
 10
5.52178
 20
87.8692
 30
0.0
 11
5.59484
 21
88.3324
 31
0.0
  0
LINE
  8
0
 62
     0
 10
5.59484
 20
88.3324
 30
0.0
 11
5.52178
 21
88.7966
 31
0.0
  0
LINE
  8
0
 62
     0
 10
5.52178
 20
88.7966
 30
0.0
 11
5.30821
 21
89.2143
 31
0.0
  0
LINE
  8
0
 62
     0
 10
5.30821
 20
89.2143
 30
0.0
 11
4.97611
 21
89.5463
 31
0.0
  0
LINE
  8
0
 62
     0
 10
4.97611
 20
89.5463
 30
0.0
 11
4.55856
 21
89.7601
 31
0.0
  0
LINE
  8
0
 62
     0
 10
4.55856
 20
89.7601
 30
0.0
 11
4.09416
 21
89.8331
 31
0.0
  0
LINE
  8
0
 62
     0
 10
4.09416
 20
89.8331
 30
0.0
 11
3.63114
 21
89.7601
 31
0.0
  0
LINE
  8
0
 62
     0
 10
259.282
 20
89.7601
 30
0.0
 11
258.864
 21
89.5463
 31
0.0
  0
LINE
  8
0
 62
     0
 10
258.864
 20
89.5463
 30
0.0
 11
258.532
 21
89.2143
 31
0.0
  0
LINE
  8
0
 62
     0
 10
258.532
 20
89.2143
 30
0.0
 11
258.32
 21
88.7966
 31
0.0
  0
LINE
  8
0
 62
     0
 10
258.32
 20
88.7966
 30
0.0
 11
258.247
 21
88.3324
 31
0.0
  0
LINE
  8
0
 62
     0
 10
258.247
 20
88.3324
 30
0.0
 11
258.32
 21
87.8692
 31
0.0
  0
LINE
  8
0
 62
     0
 10
258.32
 20
87.8692
 30
0.0
 11
258.532
 21
87.4518
 31
0.0
  0
LINE
  8
0
 62
     0
 10
258.532
 20
87.4518
 30
0.0
 11
258.864
 21
87.1195
 31
0.0
  0
LINE
  8
0
 62
     0
 10
258.864
 20
87.1195
 30
0.0
 11
259.282
 21
86.9061
 31
0.0
  0
LINE
  8
0
 62
     0
 10
259.282
 20
86.9061
 30
0.0
 11
259.746
 21
86.8331
 31
0.0
  0
LINE
  8
0
 62
     0
 10
259.746
 20
86.8331
 30
0.0
 11
260.21
 21
86.9061
 31
0.0
  0
LINE
  8
0
 62
     0
 10
260.21
 20
86.9061
 30
0.0
 11
260.627
 21
87.1195
 31
0.0
  0
LINE
  8
0
 62
     0
 10
260.627
 20
87.1195
 30
0.0
 11
260.959
 21
87.4518
 31
0.0
  0
LINE
  8
0
 62
     0
 10
260.959
 20
87.4518
 30
0.0
 11
261.173
 21
87.8692
 31
0.0
  0
LINE
  8
0
 62
     0
 10
261.173
 20
87.8692
 30
0.0
 11
261.247
 21
88.3324
 31
0.0
  0
LINE
  8
0
 62
     0
 10
261.247
 20
88.3324
 30
0.0
 11
261.173
 21
88.7966
 31
0.0
  0
LINE
  8
0
 62
     0
 10
261.173
 20
88.7966
 30
0.0
 11
260.959
 21
89.2143
 31
0.0
  0
LINE
  8
0
 62
     0
 10
260.959
 20
89.2143
 30
0.0
 11
260.627
 21
89.5463
 31
0.0
  0
LINE
  8
0
 62
     0
 10
260.627
 20
89.5463
 30
0.0
 11
260.21
 21
89.7601
 31
0.0
  0
LINE
  8
0
 62
     0
 10
260.21
 20
89.7601
 30
0.0
 11
259.746
 21
89.8331
 31
0.0
  0
LINE
  8
0
 62
     0
 10
259.746
 20
89.8331
 30
0.0
 11
259.282
 21
89.7601
 31
0.0
  0
LINE
  8
0
 62
     0
 10
174.065
 20
89.7601
 30
0.0
 11
173.648
 21
89.5463
 31
0.0
  0
LINE
  8
0
 62
     0
 10
173.648
 20
89.5463
 30
0.0
 11
173.316
 21
89.2143
 31
0.0
  0
LINE
  8
0
 62
     0
 10
173.316
 20
89.2143
 30
0.0
 11
173.102
 21
88.7966
 31
0.0
  0
LINE
  8
0
 62
     0
 10
173.102
 20
88.7966
 30
0.0
 11
173.029
 21
88.3324
 31
0.0
  0
LINE
  8
0
 62
     0
 10
173.029
 20
88.3324
 30
0.0
 11
173.102
 21
87.8692
 31
0.0
  0
LINE
  8
0
 62
     0
 10
173.102
 20
87.8692
 30
0.0
 11
173.316
 21
87.4518
 31
0.0
  0
LINE
  8
0
 62
     0
 10
173.316
 20
87.4518
 30
0.0
 11
173.648
 21
87.1195
 31
0.0
  0
LINE
  8
0
 62
     0
 10
173.648
 20
87.1195
 30
0.0
 11
174.065
 21
86.9061
 31
0.0
  0
LINE
  8
0
 62
     0
 10
174.065
 20
86.9061
 30
0.0
 11
174.53
 21
86.8331
 31
0.0
  0
LINE
  8
0
 62
     0
 10
174.53
 20
86.8331
 30
0.0
 11
174.993
 21
86.9061
 31
0.0
  0
LINE
  8
0
 62
     0
 10
174.993
 20
86.9061
 30
0.0
 11
175.411
 21
87.1195
 31
0.0
  0
LINE
  8
0
 62
     0
 10
175.411
 20
87.1195
 30
0.0
 11
175.743
 21
87.4518
 31
0.0
  0
LINE
  8
0
 62
     0
 10
175.743
 20
87.4518
 30
0.0
 11
175.955
 21
87.8692
 31
0.0
  0
LINE
  8
0
 62
     0
 10
175.955
 20
87.8692
 30
0.0
 11
176.029
 21
88.3324
 31
0.0
  0
LINE
  8
0
 62
     0
 10
176.029
 20
88.3324
 30
0.0
 11
175.955
 21
88.7966
 31
0.0
  0
LINE
  8
0
 62
     0
 10
175.955
 20
88.7966
 30
0.0
 11
175.743
 21
89.2143
 31
0.0
  0
LINE
  8
0
 62
     0
 10
175.743
 20
89.2143
 30
0.0
 11
175.411
 21
89.5463
 31
0.0
  0
LINE
  8
0
 62
     0
 10
175.411
 20
89.5463
 30
0.0
 11
174.993
 21
89.7601
 31
0.0
  0
LINE
  8
0
 62
     0
 10
174.993
 20
89.7601
 30
0.0
 11
174.53
 21
89.8331
 31
0.0
  0
LINE
  8
0
 62
     0
 10
174.53
 20
89.8331
 30
0.0
 11
174.065
 21
89.7601
 31
0.0
  0
LINE
  8
0
 62
     0
 10
88.8488
 20
89.7601
 30
0.0
 11
88.4301
 21
89.5463
 31
0.0
  0
LINE
  8
0
 62
     0
 10
88.4301
 20
89.5463
 30
0.0
 11
88.0981
 21
89.2143
 31
0.0
  0
LINE
  8
0
 62
     0
 10
88.0981
 20
89.2143
 30
0.0
 11
87.8858
 21
88.7966
 31
0.0
  0
LINE
  8
0
 62
     0
 10
87.8858
 20
88.7966
 30
0.0
 11
87.8127
 21
88.3324
 31
0.0
  0
LINE
  8
0
 62
     0
 10
87.8127
 20
88.3324
 30
0.0
 11
87.8858
 21
87.8692
 31
0.0
  0
LINE
  8
0
 62
     0
 10
87.8858
 20
87.8692
 30
0.0
 11
88.0981
 21
87.4518
 31
0.0
  0
LINE
  8
0
 62
     0
 10
88.0981
 20
87.4518
 30
0.0
 11
88.4301
 21
87.1195
 31
0.0
  0
LINE
  8
0
 62
     0
 10
88.4301
 20
87.1195
 30
0.0
 11
88.8488
 21
86.9061
 31
0.0
  0
LINE
  8
0
 62
     0
 10
88.8488
 20
86.9061
 30
0.0
 11
89.312
 21
86.8331
 31
0.0
  0
LINE
  8
0
 62
     0
 10
89.312
 20
86.8331
 30
0.0
 11
89.7749
 21
86.9061
 31
0.0
  0
LINE
  8
0
 62
     0
 10
89.7749
 20
86.9061
 30
0.0
 11
90.194
 21
87.1195
 31
0.0
  0
LINE
  8
0
 62
     0
 10
90.194
 20
87.1195
 30
0.0
 11
90.526
 21
87.4518
 31
0.0
  0
LINE
  8
0
 62
     0
 10
90.526
 20
87.4518
 30
0.0
 11
90.7383
 21
87.8692
 31
0.0
  0
LINE
  8
0
 62
     0
 10
90.7383
 20
87.8692
 30
0.0
 11
90.8128
 21
88.3324
 31
0.0
  0
LINE
  8
0
 62
     0
 10
90.8128
 20
88.3324
 30
0.0
 11
90.7383
 21
88.7966
 31
0.0
  0
LINE
  8
0
 62
     0
 10
90.7383
 20
88.7966
 30
0.0
 11
90.526
 21
89.2143
 31
0.0
  0
LINE
  8
0
 62
     0
 10
90.526
 20
89.2143
 30
0.0
 11
90.194
 21
89.5463
 31
0.0
  0
LINE
  8
0
 62
     0
 10
90.194
 20
89.5463
 30
0.0
 11
89.7749
 21
89.7601
 31
0.0
  0
LINE
  8
0
 62
     0
 10
89.7749
 20
89.7601
 30
0.0
 11
89.312
 21
89.8331
 31
0.0
  0
LINE
  8
0
 62
     0
 10
89.312
 20
89.8331
 30
0.0
 11
88.8488
 21
89.7601
 31
0.0
  0
ENDSEC
  0
EOF
