<?xml version="1.0"?>
<!-- Generated by SVGo -->
<svg width="273.652mm" height="102.202mm"
     viewBox="0.000 0.000 273.652 102.202"
     xmlns="http://www.w3.org/2000/svg" 
     xmlns:xlink="http://www.w3.org/1999/xlink">
<polygon points="265.652,5.001 265.887,5.010 266.121,5.037 266.352,5.083 266.579,5.147 266.800,5.229 267.013,5.327 267.219,5.443 267.415,5.573 267.600,5.719 267.773,5.879 267.933,6.052 268.079,6.237 268.209,6.433 268.325,6.639 268.423,6.852 268.505,7.073 268.569,7.300 268.615,7.531 268.642,7.765 268.652,8.001 268.652,94.202 268.642,94.437 268.615,94.671 268.569,94.902 268.505,95.129 268.423,95.350 268.325,95.563 268.209,95.769 268.079,95.965 267.933,96.150 267.773,96.323 267.600,96.483 267.415,96.629 267.219,96.759 267.013,96.875 266.800,96.973 266.579,97.055 266.352,97.119 266.121,97.165 265.887,97.192 265.652,97.202 8.001,97.202 7.765,97.192 7.531,97.165 7.300,97.119 7.073,97.055 6.852,96.973 6.639,96.875 6.433,96.759 6.237,96.629 6.052,96.483 5.879,96.323 5.719,96.150 5.573,95.965 5.443,95.769 5.327,95.563 5.229,95.350 5.147,95.129 5.083,94.902 5.037,94.671 5.010,94.437 5.000,94.201 5.001,8.001 5.010,7.765 5.037,7.531 5.083,7.300 5.147,7.073 5.229,6.852 5.327,6.639 5.443,6.433 5.573,6.237 5.719,6.052 5.879,5.879 6.052,5.719 6.237,5.573 6.433,5.443 6.639,5.327 6.852,5.229 7.073,5.147 7.300,5.083 7.531,5.037 7.765,5.010 8.001,5.000" style="fill:none;stroke-width:0.050000mm;stroke:black"/>
<polygon points="8.537,91.775 8.119,91.988 7.787,92.320 7.574,92.738 7.500,93.202 7.574,93.665 7.787,94.083 8.119,94.415 8.537,94.628 9.000,94.702 9.464,94.628 9.882,94.415 10.214,94.083 10.427,93.665 10.500,93.202 10.427,92.738 10.214,92.320 9.882,91.988 9.464,91.775 9.000,91.702" style="fill:none;stroke-width:0.050000mm;stroke:black"/>
<polygon points="93.754,91.775 93.336,91.988 93.004,92.320 92.791,92.738 92.718,93.202 92.791,93.665 93.004,94.083 93.336,94.415 93.754,94.628 94.218,94.702 94.681,94.628 95.099,94.415 95.431,94.083 95.644,93.665 95.718,93.202 95.644,92.738 95.431,92.320 95.099,91.988 94.681,91.775 94.218,91.702" style="fill:none;stroke-width:0.050000mm;stroke:black"/>
<polygon points="178.971,91.775 178.553,91.988 178.221,92.320 178.008,92.738 177.935,93.202 178.008,93.665 178.221,94.083 178.553,94.415 178.971,94.628 179.435,94.702 179.898,94.628 180.316,94.415 180.648,94.083 180.861,93.665 180.935,93.202 180.861,92.738 180.648,92.320 180.316,91.988 179.898,91.775 179.435,91.702" style="fill:none;stroke-width:0.050000mm;stroke:black"/>
<polygon points="264.188,91.775 263.770,91.988 263.438,92.320 263.225,92.738 263.152,93.202 263.225,93.665 263.438,94.083 263.770,94.415 264.188,94.628 264.652,94.702 265.115,94.628 265.533,94.415 265.865,94.083 266.078,93.665 266.152,93.202 266.078,92.738 265.865,92.320 265.533,91.988 265.115,91.775 264.652,91.702" style="fill:none;stroke-width:0.050000mm;stroke:black"/>
<polygon points="146.494,72.676 146.494,77.376 144.969,77.376 144.969,74.146 143.244,74.146 143.244,73.226 139.944,73.226 139.944,74.146 138.219,74.146 138.219,77.376 137.394,77.376 137.394,80.176 138.219,80.176 138.219,86.446 139.944,86.446 139.944,87.426 143.244,87.426 143.244,86.446 144.969,86.446 144.969,81.976 146.494,81.976 146.494,86.676 160.494,86.676 160.494,81.976 162.019,81.976 162.019,86.446 163.744,86.446 163.744,87.426 167.044,87.426 167.044,86.446 168.769,86.446 168.769,80.176 169.594,80.176 169.594,77.376 168.769,77.376 168.769,74.146 167.044,74.146 167.044,73.226 163.744,73.226 163.744,74.146 162.019,74.146 162.019,77.376 160.494,77.376 160.494,72.676" style="fill:none;stroke-width:0.050000mm;stroke:black"/>
<polygon points="98.869,72.676 98.869,77.376 97.344,77.376 97.344,74.146 95.619,74.146 95.619,73.226 92.319,73.226 92.319,74.146 90.594,74.146 90.594,77.376 89.769,77.376 89.769,80.176 90.594,80.176 90.594,86.446 92.319,86.446 92.319,87.426 95.619,87.426 95.619,86.446 97.344,86.446 97.344,81.976 98.869,81.976 98.869,86.676 112.869,86.676 112.869,81.976 114.394,81.976 114.394,86.446 116.119,86.446 116.119,87.426 119.419,87.426 119.419,86.446 121.144,86.446 121.144,80.176 121.969,80.176 121.969,77.376 121.144,77.376 121.144,74.146 119.419,74.146 119.419,73.226 116.119,73.226 116.119,74.146 114.394,74.146 114.394,77.376 112.869,77.376 112.869,72.676" style="fill:none;stroke-width:0.050000mm;stroke:black"/>
<polygon points="244.126,72.676 244.126,86.676 258.126,86.676 258.126,72.676" style="fill:none;stroke-width:0.050000mm;stroke:black"/>
<polygon points="225.076,72.676 225.076,86.676 239.076,86.676 239.076,72.676" style="fill:none;stroke-width:0.050000mm;stroke:black"/>
<polygon points="206.026,72.676 206.026,86.676 220.026,86.676 220.026,72.676" style="fill:none;stroke-width:0.050000mm;stroke:black"/>
<polygon points="184.594,72.676 184.594,86.676 198.594,86.676 198.594,72.676" style="fill:none;stroke-width:0.050000mm;stroke:black"/>
<polygon points="65.532,72.676 65.532,86.676 79.532,86.676 79.532,72.676" style="fill:none;stroke-width:0.050000mm;stroke:black"/>
<polygon points="41.719,72.676 41.719,86.676 55.719,86.676 55.719,72.676" style="fill:none;stroke-width:0.050000mm;stroke:black"/>
<polygon points="17.907,72.676 17.907,86.676 31.907,86.676 31.907,72.676" style="fill:none;stroke-width:0.050000mm;stroke:black"/>
<polygon points="25.050,53.626 25.050,58.326 23.526,58.326 23.526,55.096 21.800,55.096 21.800,54.176 18.500,54.176 18.500,55.096 16.776,55.096 16.776,58.326 15.950,58.326 15.950,61.126 16.776,61.126 16.776,67.396 18.500,67.396 18.500,68.376 21.800,68.376 21.800,67.396 23.526,67.396 23.526,62.926 25.050,62.926 25.050,67.626 39.051,67.626 39.051,62.926 40.575,62.926 40.575,67.396 42.301,67.396 42.301,68.376 45.600,68.376 45.600,67.396 47.325,67.396 47.325,61.126 48.151,61.126 48.151,58.326 47.325,58.326 47.325,55.096 45.600,55.096 45.600,54.176 42.301,54.176 42.301,55.096 40.575,55.096 40.575,58.326 39.051,58.326 39.051,53.626" style="fill:none;stroke-width:0.050000mm;stroke:black"/>
<polygon points="244.126,53.626 244.126,67.626 258.126,67.626 258.126,53.626" style="fill:none;stroke-width:0.050000mm;stroke:black"/>
<polygon points="225.076,53.626 225.076,67.626 239.076,67.626 239.076,53.626" style="fill:none;stroke-width:0.050000mm;stroke:black"/>
<polygon points="206.026,53.626 206.026,67.626 220.026,67.626 220.026,53.626" style="fill:none;stroke-width:0.050000mm;stroke:black"/>
<polygon points="186.976,53.626 186.976,67.626 200.976,67.626 200.976,53.626" style="fill:none;stroke-width:0.050000mm;stroke:black"/>
<polygon points="167.926,53.626 167.926,67.626 181.926,67.626 181.926,53.626" style="fill:none;stroke-width:0.050000mm;stroke:black"/>
<polygon points="148.876,53.626 148.876,67.626 162.876,67.626 162.876,53.626" style="fill:none;stroke-width:0.050000mm;stroke:black"/>
<polygon points="129.825,53.626 129.825,67.626 143.826,67.626 143.826,53.626" style="fill:none;stroke-width:0.050000mm;stroke:black"/>
<polygon points="110.775,53.626 110.775,67.626 124.775,67.626 124.775,53.626" style="fill:none;stroke-width:0.050000mm;stroke:black"/>
<polygon points="91.726,53.626 91.726,67.626 105.726,67.626 105.726,53.626" style="fill:none;stroke-width:0.050000mm;stroke:black"/>
<polygon points="72.676,53.626 72.676,67.626 86.676,67.626 86.676,53.626" style="fill:none;stroke-width:0.050000mm;stroke:black"/>
<polygon points="53.626,53.626 53.626,67.626 67.626,67.626 67.626,53.626" style="fill:none;stroke-width:0.050000mm;stroke:black"/>
<polygon points="239.363,34.576 239.363,48.576 253.363,48.576 253.363,34.576" style="fill:none;stroke-width:0.050000mm;stroke:black"/>
<polygon points="215.551,34.576 215.551,48.576 229.551,48.576 229.551,34.576" style="fill:none;stroke-width:0.050000mm;stroke:black"/>
<polygon points="196.501,34.576 196.501,48.576 210.501,48.576 210.501,34.576" style="fill:none;stroke-width:0.050000mm;stroke:black"/>
<polygon points="177.451,34.576 177.451,48.576 191.451,48.576 191.451,34.576" style="fill:none;stroke-width:0.050000mm;stroke:black"/>
<polygon points="158.401,34.576 158.401,48.576 172.401,48.576 172.401,34.576" style="fill:none;stroke-width:0.050000mm;stroke:black"/>
<polygon points="139.351,34.576 139.351,48.576 153.351,48.576 153.351,34.576" style="fill:none;stroke-width:0.050000mm;stroke:black"/>
<polygon points="120.301,34.576 120.301,48.576 134.301,48.576 134.301,34.576" style="fill:none;stroke-width:0.050000mm;stroke:black"/>
<polygon points="101.251,34.576 101.251,48.576 115.251,48.576 115.251,34.576" style="fill:none;stroke-width:0.050000mm;stroke:black"/>
<polygon points="82.201,34.576 82.201,48.576 96.201,48.576 96.201,34.576" style="fill:none;stroke-width:0.050000mm;stroke:black"/>
<polygon points="63.151,34.576 63.151,48.576 77.151,48.576 77.151,34.576" style="fill:none;stroke-width:0.050000mm;stroke:black"/>
<polygon points="44.101,34.576 44.101,48.576 58.101,48.576 58.101,34.576" style="fill:none;stroke-width:0.050000mm;stroke:black"/>
<polygon points="20.288,34.576 20.288,48.576 34.288,48.576 34.288,34.576" style="fill:none;stroke-width:0.050000mm;stroke:black"/>
<polygon points="234.601,15.525 234.601,20.225 233.076,20.225 233.076,16.995 231.351,16.995 231.351,16.076 228.051,16.076 228.051,16.995 226.326,16.995 226.326,20.225 225.501,20.225 225.501,23.026 226.326,23.026 226.326,29.295 228.051,29.295 228.051,30.276 231.351,30.276 231.351,29.295 233.076,29.295 233.076,24.826 234.601,24.826 234.601,29.526 248.601,29.526 248.601,24.826 250.126,24.826 250.126,29.295 251.851,29.295 251.851,30.276 255.151,30.276 255.151,29.295 256.876,29.295 256.876,23.026 257.701,23.026 257.701,20.225 256.876,20.225 256.876,16.995 255.151,16.995 255.151,16.076 251.851,16.076 251.851,16.995 250.126,16.995 250.126,20.225 248.601,20.225 248.601,15.525" style="fill:none;stroke-width:0.050000mm;stroke:black"/>
<polygon points="206.026,15.525 206.026,29.526 220.026,29.526 220.026,15.525" style="fill:none;stroke-width:0.050000mm;stroke:black"/>
<polygon points="186.976,15.525 186.976,29.526 200.976,29.526 200.976,15.525" style="fill:none;stroke-width:0.050000mm;stroke:black"/>
<polygon points="167.926,15.525 167.926,29.526 181.926,29.526 181.926,15.525" style="fill:none;stroke-width:0.050000mm;stroke:black"/>
<polygon points="148.876,15.525 148.876,29.526 162.876,29.526 162.876,15.525" style="fill:none;stroke-width:0.050000mm;stroke:black"/>
<polygon points="129.825,15.525 129.825,29.526 143.826,29.526 143.826,15.525" style="fill:none;stroke-width:0.050000mm;stroke:black"/>
<polygon points="110.775,15.525 110.775,29.526 124.775,29.526 124.775,15.525" style="fill:none;stroke-width:0.050000mm;stroke:black"/>
<polygon points="91.726,15.525 91.726,29.526 105.726,29.526 105.726,15.525" style="fill:none;stroke-width:0.050000mm;stroke:black"/>
<polygon points="72.676,15.525 72.676,29.526 86.676,29.526 86.676,15.525" style="fill:none;stroke-width:0.050000mm;stroke:black"/>
<polygon points="53.626,15.525 53.626,29.526 67.626,29.526 67.626,15.525" style="fill:none;stroke-width:0.050000mm;stroke:black"/>
<polygon points="34.576,15.525 34.576,29.526 48.576,29.526 48.576,15.525" style="fill:none;stroke-width:0.050000mm;stroke:black"/>
<polygon points="15.525,15.525 15.525,29.526 29.526,29.526 29.526,15.525" style="fill:none;stroke-width:0.050000mm;stroke:black"/>
<polygon points="8.537,7.574 8.119,7.787 7.787,8.119 7.574,8.537 7.500,9.001 7.574,9.464 7.787,9.882 8.119,10.214 8.537,10.427 9.000,10.501 9.464,10.427 9.882,10.214 10.214,9.882 10.427,9.464 10.500,9.001 10.427,8.537 10.214,8.119 9.882,7.787 9.464,7.574 9.000,7.501" style="fill:none;stroke-width:0.050000mm;stroke:black"/>
<polygon points="264.188,7.574 263.770,7.787 263.438,8.119 263.225,8.537 263.152,9.001 263.225,9.464 263.438,9.882 263.770,10.214 264.188,10.427 264.652,10.501 265.115,10.427 265.533,10.214 265.865,9.882 266.078,9.464 266.152,9.001 266.078,8.537 265.865,8.119 265.533,7.787 265.115,7.574 264.652,7.501" style="fill:none;stroke-width:0.050000mm;stroke:black"/>
<polygon points="178.971,7.574 178.553,7.787 178.221,8.119 178.008,8.537 177.935,9.001 178.008,9.464 178.221,9.882 178.553,10.214 178.971,10.427 179.435,10.501 179.898,10.427 180.316,10.214 180.648,9.882 180.861,9.464 180.935,9.001 180.861,8.537 180.648,8.119 180.316,7.787 179.898,7.574 179.435,7.501" style="fill:none;stroke-width:0.050000mm;stroke:black"/>
<polygon points="93.754,7.574 93.336,7.787 93.004,8.119 92.791,8.537 92.718,9.001 92.791,9.464 93.004,9.882 93.336,10.214 93.754,10.427 94.218,10.501 94.681,10.427 95.099,10.214 95.431,9.882 95.644,9.464 95.718,9.001 95.644,8.537 95.431,8.119 95.099,7.787 94.681,7.574 94.218,7.501" style="fill:none;stroke-width:0.050000mm;stroke:black"/>
</svg>
