<?xml version="1.0"?>
<!-- Generated by SVGo -->
<svg width="273.652mm" height="102.202mm"
     viewBox="0.000 0.000 273.652 102.202"
     xmlns="http://www.w3.org/2000/svg" 
     xmlns:xlink="http://www.w3.org/1999/xlink">
<polygon points="131.826,13.001 13.001,13.001 13.001,89.202 260.652,89.202 260.652,13.001 141.826,13.001 141.826,5.001 265.652,5.001 265.887,5.010 266.121,5.037 266.352,5.083 266.579,5.147 266.800,5.229 267.013,5.327 267.219,5.443 267.415,5.573 267.600,5.719 267.773,5.879 267.933,6.052 268.079,6.237 268.209,6.433 268.325,6.639 268.423,6.852 268.505,7.073 268.569,7.300 268.615,7.531 268.642,7.765 268.652,8.001 268.652,94.202 268.642,94.437 268.615,94.671 268.569,94.902 268.505,95.129 268.423,95.350 268.325,95.563 268.209,95.769 268.079,95.965 267.933,96.150 267.773,96.323 267.600,96.483 267.415,96.629 267.219,96.759 267.013,96.875 266.800,96.973 266.579,97.055 266.352,97.119 266.121,97.165 265.887,97.192 265.652,97.202 8.001,97.202 7.765,97.192 7.531,97.165 7.300,97.119 7.073,97.055 6.852,96.973 6.639,96.875 6.433,96.759 6.237,96.629 6.052,96.483 5.879,96.323 5.719,96.150 5.573,95.965 5.443,95.769 5.327,95.563 5.229,95.350 5.147,95.129 5.083,94.902 5.037,94.671 5.010,94.437 5.000,94.201 5.001,8.001 5.010,7.765 5.037,7.531 5.083,7.300 5.147,7.073 5.229,6.852 5.327,6.639 5.443,6.433 5.573,6.237 5.719,6.052 5.879,5.879 6.052,5.719 6.237,5.573 6.433,5.443 6.639,5.327 6.852,5.229 7.073,5.147 7.300,5.083 7.531,5.037 7.765,5.010 8.001,5.000 131.826,5.000" style="fill:none;stroke-width:0.050000mm;stroke:black"/>
<polygon points="8.537,91.775 8.119,91.988 7.787,92.320 7.574,92.738 7.500,93.202 7.574,93.665 7.787,94.083 8.119,94.415 8.537,94.628 9.000,94.702 9.464,94.628 9.882,94.415 10.214,94.083 10.427,93.665 10.500,93.202 10.427,92.738 10.214,92.320 9.882,91.988 9.464,91.775 9.000,91.702" style="fill:none;stroke-width:0.050000mm;stroke:black"/>
<polygon points="93.754,91.775 93.336,91.988 93.004,92.320 92.791,92.738 92.718,93.202 92.791,93.665 93.004,94.083 93.336,94.415 93.754,94.628 94.218,94.702 94.681,94.628 95.099,94.415 95.431,94.083 95.644,93.665 95.718,93.202 95.644,92.738 95.431,92.320 95.099,91.988 94.681,91.775 94.218,91.702" style="fill:none;stroke-width:0.050000mm;stroke:black"/>
<polygon points="178.971,91.775 178.553,91.988 178.221,92.320 178.008,92.738 177.935,93.202 178.008,93.665 178.221,94.083 178.553,94.415 178.971,94.628 179.435,94.702 179.898,94.628 180.316,94.415 180.648,94.083 180.861,93.665 180.935,93.202 180.861,92.738 180.648,92.320 180.316,91.988 179.898,91.775 179.435,91.702" style="fill:none;stroke-width:0.050000mm;stroke:black"/>
<polygon points="264.188,91.775 263.770,91.988 263.438,92.320 263.225,92.738 263.152,93.202 263.225,93.665 263.438,94.083 263.770,94.415 264.188,94.628 264.652,94.702 265.115,94.628 265.533,94.415 265.865,94.083 266.078,93.665 266.152,93.202 266.078,92.738 265.865,92.320 265.533,91.988 265.115,91.775 264.652,91.702" style="fill:none;stroke-width:0.050000mm;stroke:black"/>
<polygon points="8.537,7.574 8.119,7.787 7.787,8.119 7.574,8.537 7.500,9.001 7.574,9.464 7.787,9.882 8.119,10.214 8.537,10.427 9.000,10.501 9.464,10.427 9.882,10.214 10.214,9.882 10.427,9.464 10.500,9.001 10.427,8.537 10.214,8.119 9.882,7.787 9.464,7.574 9.000,7.501" style="fill:none;stroke-width:0.050000mm;stroke:black"/>
<polygon points="264.188,7.574 263.770,7.787 263.438,8.119 263.225,8.537 263.152,9.001 263.225,9.464 263.438,9.882 263.770,10.214 264.188,10.427 264.652,10.501 265.115,10.427 265.533,10.214 265.865,9.882 266.078,9.464 266.152,9.001 266.078,8.537 265.865,8.119 265.533,7.787 265.115,7.574 264.652,7.501" style="fill:none;stroke-width:0.050000mm;stroke:black"/>
<polygon points="178.971,7.574 178.553,7.787 178.221,8.119 178.008,8.537 177.935,9.001 178.008,9.464 178.221,9.882 178.553,10.214 178.971,10.427 179.435,10.501 179.898,10.427 180.316,10.214 180.648,9.882 180.861,9.464 180.935,9.001 180.861,8.537 180.648,8.119 180.316,7.787 179.898,7.574 179.435,7.501" style="fill:none;stroke-width:0.050000mm;stroke:black"/>
<polygon points="93.754,7.574 93.336,7.787 93.004,8.119 92.791,8.537 92.718,9.001 92.791,9.464 93.004,9.882 93.336,10.214 93.754,10.427 94.218,10.501 94.681,10.427 95.099,10.214 95.431,9.882 95.644,9.464 95.718,9.001 95.644,8.537 95.431,8.119 95.099,7.787 94.681,7.574 94.218,7.501" style="fill:none;stroke-width:0.050000mm;stroke:black"/>
</svg>
